<svg width="14" height="14" viewBox="0 0 14 14" fill="none" xmlns="http://www.w3.org/2000/svg">
<path fill-rule="evenodd" clip-rule="evenodd" d="M6.91632 9.51175C6.79162 9.51175 6.66747 9.46964 6.56629 9.38487L3.28473 6.65024C3.05284 6.45717 3.02112 6.11206 3.21473 5.88017C3.40779 5.64827 3.75236 5.61709 3.9848 5.81016L6.92234 8.2582L9.85495 5.89821C10.0901 5.70898 10.4347 5.74617 10.6239 5.98135C10.8132 6.21652 10.776 6.56054 10.5408 6.75032L7.25924 9.39088C7.15916 9.47128 7.03774 9.51175 6.91632 9.51175" fill="white"/>
<mask id="mask0" mask-type="alpha" maskUnits="userSpaceOnUse" x="3" y="5" width="8" height="5">
<path fill-rule="evenodd" clip-rule="evenodd" d="M6.91632 9.51175C6.79162 9.51175 6.66747 9.46964 6.56629 9.38487L3.28473 6.65024C3.05284 6.45717 3.02112 6.11206 3.21473 5.88017C3.40779 5.64827 3.75236 5.61709 3.9848 5.81016L6.92234 8.2582L9.85495 5.89821C10.0901 5.70898 10.4347 5.74617 10.6239 5.98135C10.8132 6.21652 10.776 6.56054 10.5408 6.75032L7.25924 9.39088C7.15916 9.47128 7.03774 9.51175 6.91632 9.51175" fill="white"/>
</mask>
<g mask="url(#mask0)">
<rect x="0.353271" y="0.760941" width="13.1262" height="13.1262" fill="white"/>
</g>
</svg>
