<svg width="23" height="21" viewBox="0 0 23 21" fill="none" xmlns="http://www.w3.org/2000/svg">
<path d="M18.7852 0.189667L3.47125 0.189667C1.66202 0.189667 0.189697 1.66199 0.189697 3.47122L0.189697 6.56791C0.189697 7.71974 0.607548 8.76655 1.28355 9.57163L1.28355 19.879C1.28355 20.1691 1.39879 20.4473 1.60393 20.6525C1.80907 20.8576 2.08729 20.9728 2.3774 20.9728H11.1282C11.4183 20.9728 11.6965 20.8576 11.9017 20.6525C12.1068 20.4473 12.2221 20.1691 12.2221 19.879L12.2221 14.4097L16.5975 14.4097V19.879C16.5975 20.1691 16.7127 20.4473 16.9178 20.6525C17.123 20.8576 17.4012 20.9728 17.6913 20.9728H19.879C20.1691 20.9728 20.4474 20.8576 20.6525 20.6525C20.8576 20.4473 20.9729 20.1691 20.9729 19.879V9.57054C21.6489 8.76656 22.0667 7.71974 22.0667 6.56682V3.47122C22.0667 1.66199 20.5944 0.189667 18.7852 0.189667ZM19.879 3.47122V6.56791C19.879 7.8149 18.9503 8.87813 17.8105 8.93829L17.6913 8.94048C16.4848 8.94048 15.5036 7.95929 15.5036 6.75277V2.37737H18.7852C19.389 2.37737 19.879 2.86851 19.879 3.47122ZM8.94051 6.75277V2.37737L13.3159 2.37737V6.75277C13.3159 7.95929 12.3347 8.94048 11.1282 8.94048C9.92169 8.94048 8.94051 7.95929 8.94051 6.75277ZM2.3774 3.47122C2.3774 2.86851 2.86745 2.37737 3.47125 2.37737L6.7528 2.37737V6.75277C6.7528 7.95929 5.77162 8.94048 4.5651 8.94048L4.44587 8.9372C3.30608 8.87813 2.3774 7.8149 2.3774 6.56791L2.3774 3.47122ZM8.94051 15.5036H4.5651V12.222H8.94051V15.5036Z" fill="url(#paint0_linear)"/>
<defs>
<linearGradient id="paint0_linear" x1="11.1282" y1="0.189667" x2="11.1282" y2="20.9728" gradientUnits="userSpaceOnUse">
<stop stop-color="#EA9769"/>
<stop offset="1" stop-color="#EA6969"/>
</linearGradient>
</defs>
</svg>
