<svg width="14" height="14" viewBox="0 0 14 14"  xmlns="http://www.w3.org/2000/svg">
<path d="M8.40869 1.3285L8.52835 1.44007L9.00007 1.91179C9.1621 2.07306 9.37463 2.17249 9.60072 2.19483L9.69833 2.19964H10.373C11.4256 2.19964 12.2863 3.02276 12.3465 4.06031L12.3498 4.17645V4.85048C12.3498 5.08005 12.429 5.30076 12.5718 5.47624L12.6369 5.54858L13.1086 6.02033C13.8512 6.7596 13.8844 7.94181 13.2041 8.7209L13.1153 8.81613L12.6373 9.29416C12.4765 9.45533 12.377 9.66802 12.3546 9.89387L12.3498 9.99136V10.6667C12.3498 11.7192 11.5268 12.5794 10.4892 12.6395L10.373 12.6429H9.69833C9.46958 12.6429 9.24859 12.7224 9.07301 12.8656L9.00065 12.9308L8.52953 13.4012C7.79105 14.1448 6.60799 14.1777 5.8286 13.4971L5.72744 13.4024L5.25679 12.9318C5.09376 12.7699 4.88083 12.6701 4.65539 12.6477L4.55811 12.6429H3.88276C2.83061 12.6429 1.97009 11.8202 1.90997 10.7828L1.90661 10.6667V9.99136C1.90661 9.76298 1.827 9.54177 1.68387 9.36652L1.61869 9.29433L1.14803 8.82302C0.404709 8.08389 0.371737 6.9008 1.05234 6.12219L1.14114 6.02703L1.6177 5.54982C1.77977 5.38659 1.87942 5.17406 1.9018 4.94806L1.90661 4.85048V4.17645L1.90997 4.06033C1.96787 3.06131 2.76802 2.26092 3.76668 2.203L3.88276 2.19964H4.55811C4.78682 2.19964 5.00785 2.1203 5.18311 1.97777L5.25531 1.91286L5.72665 1.44086C6.46589 0.69826 7.64885 0.665567 8.40869 1.3285ZM6.49909 2.06758L6.4238 2.13595L5.95043 2.60997C5.61096 2.94704 5.16196 3.14858 4.68794 3.17983L4.55811 3.18411H3.88276C3.36588 3.18411 2.94077 3.58062 2.89513 4.08616L2.89108 4.17645V4.85048C2.89108 5.32904 2.71741 5.78921 2.40416 6.14891L2.3153 6.24446L1.83805 6.72236C1.47589 7.08617 1.4548 7.66088 1.77485 8.05076L1.84341 8.12615L2.31547 8.59887C2.65307 8.93728 2.85541 9.38706 2.88679 9.86144L2.89108 9.99136V10.6667C2.89108 11.1839 3.2873 11.6087 3.79253 11.6543L3.88276 11.6584H4.55811C5.03576 11.6584 5.49633 11.8323 5.85611 12.1455L5.95167 12.2344L6.42639 12.7091C6.79275 13.0734 7.36762 13.0947 7.75715 12.7746L7.83247 12.7061L8.30559 12.2336C8.64472 11.8961 9.09392 11.694 9.56837 11.6627L9.69833 11.6584H10.373C10.8906 11.6584 11.3157 11.2624 11.3613 10.757L11.3654 10.6667V9.99136C11.3654 9.51301 11.5391 9.05162 11.852 8.6935L11.9407 8.59845L12.4182 8.12099C12.7804 7.75677 12.8013 7.18234 12.4817 6.79261L12.4133 6.71724L11.9395 6.24346C11.6022 5.90377 11.4009 5.45523 11.3696 4.98053L11.3654 4.85048V4.17645C11.3654 3.65901 10.9689 3.23381 10.4633 3.18816L10.373 3.18411H9.69833C9.21977 3.18411 8.75901 3.01059 8.40007 2.69755L8.30477 2.60874L7.85326 2.15603L7.82711 2.13173C7.46333 1.7696 6.88849 1.7484 6.49909 2.06758ZM9.16042 8.76183C9.20636 8.80777 9.24574 8.86028 9.27199 8.91934C9.29168 8.97841 9.30481 9.04404 9.30481 9.10967C9.30481 9.17596 9.29168 9.23437 9.27199 9.29344C9.24574 9.35251 9.20636 9.41158 9.16042 9.45752C9.06854 9.5494 8.94384 9.60191 8.81258 9.60191C8.68131 9.60191 8.55662 9.5494 8.46473 9.45752C8.41879 9.41158 8.38597 9.35251 8.35972 9.29344C8.33347 9.23437 8.32034 9.17596 8.32034 9.10967C8.32034 9.04404 8.33347 8.97841 8.35972 8.91934C8.38597 8.86028 8.41879 8.80777 8.46473 8.76183C8.6485 8.57806 8.97665 8.57806 9.16042 8.76183ZM9.1628 5.38627C9.33756 5.56103 9.35344 5.83449 9.21046 6.02719L9.1628 6.08239L5.78937 9.45583C5.59714 9.64806 5.28547 9.64806 5.09324 9.45583C4.91849 9.28108 4.9026 9.00762 5.04558 8.81492L5.09324 8.75971L8.46668 5.38627C8.65891 5.19404 8.97057 5.19404 9.1628 5.38627ZM5.78692 5.38865C5.8788 5.47988 5.93131 5.60524 5.93131 5.7365C5.93131 5.80213 5.92474 5.86054 5.89849 5.92027C5.87224 5.97933 5.83286 6.03184 5.78692 6.08434C5.74098 6.13029 5.68847 6.16244 5.6294 6.1887C5.57034 6.21495 5.5047 6.22873 5.43907 6.22873C5.37344 6.22873 5.31437 6.21495 5.25531 6.1887C5.19624 6.16244 5.13717 6.13029 5.09123 6.08434C5.04529 6.03184 5.01247 5.97933 4.98622 5.92027C4.95997 5.86054 4.94684 5.80213 4.94684 5.7365C4.94684 5.67021 4.95997 5.60524 4.98622 5.54617C5.01247 5.4871 5.04529 5.42803 5.09123 5.38865C5.28156 5.20423 5.60315 5.20423 5.78692 5.38865Z" />
</svg>
