<svg width="14" height="15" viewBox="0 0 14 15"  xmlns="http://www.w3.org/2000/svg">
<path d="M5.63856 1.43194C6.47207 0.769727 7.64031 0.743475 8.49942 1.35319L8.60508 1.43194L12.6014 4.62883C13.0411 4.96946 13.3108 5.47548 13.3568 6.02612L13.3633 6.15804V11.4801C13.3633 12.8518 12.2798 13.9675 10.9219 14.0397H9.6158C8.99165 14.0272 8.48695 13.5415 8.44101 12.9312L8.43444 12.8386V10.9622C8.43444 10.7581 8.28284 10.5881 8.08004 10.5547L8.02097 10.5481H6.26796C6.0586 10.5547 5.88796 10.7056 5.86171 10.9025L5.85514 10.9622V12.8327C5.85514 12.8714 5.84792 12.9174 5.84202 12.9502L5.83545 12.964L5.82823 13.0093C5.75013 13.5678 5.29071 13.9937 4.71972 14.0338L4.6344 14.0397H3.45961C2.08792 14.0397 0.965627 12.964 0.893433 11.6113L0.893433 6.15804C0.899339 5.59952 1.14283 5.08103 1.54974 4.72006L5.63856 1.43194ZM8.03409 2.14732C7.5353 1.74697 6.82648 1.72794 6.30143 2.07513L6.20233 2.14732L2.21196 5.3639C1.98291 5.53389 1.84508 5.78985 1.81227 6.05894L1.80505 6.16395V11.4801C1.80505 12.353 2.48761 13.0683 3.3546 13.1208H4.6344C4.77879 13.1208 4.90349 13.023 4.92252 12.8852L4.93631 12.7671L4.94287 12.7336V10.9622C4.94287 10.26 5.48104 9.68899 6.17017 9.63583H8.02097C8.72256 9.63583 9.29355 10.1747 9.34671 10.8638V12.8386C9.34671 12.9765 9.44516 13.0952 9.57642 13.1208H10.7965C11.676 13.1208 12.3913 12.4455 12.4438 11.5851L12.4511 11.4801V6.16395C12.4438 5.88239 12.3264 5.61921 12.1229 5.42297L12.0376 5.35012L8.03409 2.14732Z"/>
</svg>
