<svg width="14" height="13" viewBox="0 0 14 13"   xmlns="http://www.w3.org/2000/svg">
<path d="M9.9642 0.243177C10.9578 0.254368 11.9035 0.674988 12.5811 1.40711C13.2586 2.13923 13.6089 3.11894 13.5511 4.08848L13.5503 8.18188C13.6089 9.18101 13.2586 10.1607 12.5811 10.8928C11.9035 11.625 10.9578 12.0456 9.95865 12.0568H4.01204C1.93184 12.0568 0.431091 10.3756 0.431091 8.21146L0.431091 4.08848C0.431091 1.92432 1.93184 0.243177 4.01204 0.243177L9.9642 0.243177ZM9.95309 1.24627L4.01204 1.24627C2.50686 1.24627 1.427 2.45596 1.427 4.08848L1.427 8.21146C1.427 9.84398 2.50686 11.0537 4.01204 11.0537H9.95309C10.6743 11.0456 11.3608 10.7403 11.8526 10.2088C12.3444 9.67743 12.5987 8.96629 12.5552 8.21146L12.5561 4.05889C12.5987 3.33366 12.3444 2.62252 11.8526 2.0911C11.3608 1.55968 10.6743 1.25437 9.95309 1.24627ZM10.9478 3.9437C11.1041 4.1403 11.0896 4.41903 10.9243 4.59813L10.8703 4.6487L8.1748 6.82179C7.52013 7.33575 6.61556 7.36145 5.93297 6.89655L5.8271 6.81907L3.11361 4.65C2.89819 4.4778 2.86215 4.16231 3.03311 3.94533C3.18852 3.74808 3.46151 3.70015 3.67171 3.82244L3.73271 3.86425L6.44278 6.03061C6.74663 6.26915 7.16318 6.2875 7.48039 6.08882L7.5575 6.03462L10.2479 3.86555C10.4626 3.69245 10.776 3.72744 10.9478 3.9437Z" />
</svg>
