<svg width="12" height="14" viewBox="0 0 12 14"   xmlns="http://www.w3.org/2000/svg">
<path d="M7.83977 12.2999C8.03442 12.4584 8.06527 12.7466 7.90867 12.9437C7.79291 13.0893 7.65914 13.2198 7.51737 13.3266C7.03982 13.7013 6.43268 13.8713 5.82972 13.7994C5.22622 13.7276 4.67573 13.4193 4.30004 12.942C4.14437 12.7442 4.17658 12.4561 4.37197 12.2985C4.56736 12.141 4.85195 12.1735 5.00762 12.3713C5.23419 12.6592 5.56811 12.8462 5.93544 12.8899C6.30332 12.9337 6.67337 12.8302 6.9699 12.5976C7.05733 12.5316 7.13591 12.455 7.20378 12.3696C7.36038 12.1726 7.64512 12.1414 7.83977 12.2999ZM1.63381 5.28336L1.64189 4.8923C1.64766 4.72504 1.6566 4.56977 1.66972 4.41782C1.86642 2.29374 3.89383 0.68935 6.10503 0.68935H6.15184C8.36186 0.68935 10.3899 2.29262 10.5933 4.42072C10.6049 4.55599 10.6099 4.67616 10.6115 4.84515L10.612 5.36217C10.6125 5.40926 10.6133 5.45068 10.6145 5.4893L10.6206 5.61809L10.6499 5.7409C10.7422 6.08293 10.9045 6.4027 11.1268 6.68029L11.2257 6.79662L11.2662 6.84861C11.5327 7.247 11.685 7.71057 11.7068 8.20984L11.7061 8.47453C11.6875 9.06582 11.4704 9.6369 11.0727 10.1128C10.5458 10.6719 9.83195 11.0192 9.07322 11.0891C7.11391 11.3018 5.13711 11.3018 3.18325 11.0896C2.4193 11.0161 1.70752 10.6698 1.15766 10.0892C0.752181 9.59491 0.536646 8.97251 0.550093 8.34353L0.550648 8.18716C0.574074 7.70893 0.725415 7.2458 0.98881 6.84567L1.03289 6.78896C1.34052 6.45171 1.55083 6.03897 1.64208 5.594L1.63221 5.63396L1.63381 5.28336ZM6.15184 1.60513H6.10503C4.33412 1.60513 2.7206 2.882 2.57072 4.5004C2.56305 4.58933 2.55693 4.68108 2.55215 4.77764L2.54161 5.08374L2.53733 5.68707L2.52789 5.78014C2.40321 6.3881 2.1163 6.95116 1.69758 7.41021L1.72991 7.37273L1.67208 7.46844C1.56375 7.66363 1.49386 7.87563 1.46625 8.08482L1.45478 8.20984L1.45468 8.35336C1.44581 8.77132 1.58704 9.17914 1.83173 9.47936C2.20919 9.8767 2.7198 10.1251 3.27429 10.1785C5.16946 10.3843 7.08157 10.3843 8.98398 10.1778C9.53248 10.1273 10.0427 9.87899 10.3997 9.50141C10.6698 9.17744 10.8125 8.76831 10.8021 8.33772L10.8026 8.23045C10.7888 7.92095 10.6902 7.62082 10.5171 7.36219L10.5271 7.37883L10.4366 7.27271C10.1246 6.88761 9.89798 6.44093 9.77178 5.96213L9.72919 5.78113L9.72074 5.72031C9.71435 5.63145 9.71064 5.55249 9.70866 5.45754L9.70688 4.86381C9.70565 4.71283 9.70157 4.61119 9.69239 4.50466C9.53728 2.88192 7.92224 1.60513 6.15184 1.60513Z"  />
</svg>
