<svg width="14" height="14" viewBox="0 0 14 14"   xmlns="http://www.w3.org/2000/svg">
<path d="M7.53249 0.633049C7.99783 0.632862 8.44343 0.817219 8.76778 1.14413C9.09214 1.47103 9.26762 1.91265 9.2535 2.32479L9.25907 2.42173C9.2704 2.51718 9.30212 2.60931 9.35355 2.69422C9.45377 2.86166 9.61785 2.98317 9.80961 3.03196C10.0014 3.08074 10.2051 3.05279 10.398 2.9422L10.5055 2.8878C11.3127 2.51599 12.2809 2.81146 12.7287 3.57285L13.1311 4.25702C13.1417 4.27506 13.151 4.2937 13.1591 4.31281L13.1964 4.38611C13.5564 5.13875 13.3003 6.034 12.6165 6.48884L12.4476 6.5928C12.3593 6.6531 12.2857 6.73187 12.2304 6.82651C12.1304 6.99461 12.103 7.19481 12.1542 7.38279C12.2053 7.57077 12.3309 7.731 12.5213 7.83887L12.6309 7.90766C12.9619 8.13449 13.201 8.46882 13.3053 8.85202C13.4229 9.28436 13.3598 9.74482 13.1268 10.1367L12.6938 10.8433L12.6286 10.9429C12.1199 11.6596 11.1323 11.8785 10.3787 11.4523L10.2893 11.4072C10.1962 11.3664 10.0956 11.344 10.0041 11.3414C9.80498 11.3405 9.61375 11.4176 9.47296 11.5555C9.33217 11.6935 9.2535 11.8808 9.25401 12.0987L9.24869 12.2113C9.17581 13.0835 8.43058 13.7593 7.53269 13.7593H6.72192C5.77102 13.7593 5.00015 13.004 5.00112 12.1023L4.99554 12.0054C4.98422 11.9099 4.9525 11.8178 4.89846 11.7285C4.80044 11.5606 4.63804 11.4381 4.44736 11.3881C4.25668 11.3381 4.05351 11.3648 3.85686 11.4762L3.74002 11.5333C3.3705 11.6962 2.9537 11.7262 2.56314 11.6175C2.1225 11.4948 1.74993 11.2051 1.53252 10.8206L1.11423 10.1129L1.05856 10.0081C0.677638 9.22031 0.976221 8.27331 1.73402 7.84423L1.80313 7.80183C2.00558 7.66455 2.12697 7.43821 2.12697 7.19616C2.12697 6.93295 1.98364 6.68973 1.73293 6.5474L1.6312 6.48346C0.899756 5.98511 0.676273 5.01752 1.12939 4.24732L1.55552 3.56128C2.02945 2.7554 3.07972 2.47739 3.88751 2.93126L3.97495 2.97693C4.0641 3.01702 4.16093 3.03829 4.25416 3.03927C4.66528 3.03931 5.00022 2.71587 5.00645 2.30126L5.01203 2.17394C5.04569 1.77973 5.22029 1.40927 5.50571 1.12828C5.82773 0.81127 6.26542 0.633049 6.72192 0.633049H7.53249ZM7.53269 1.58322H6.72192C6.52343 1.58322 6.33313 1.66071 6.19312 1.79854C6.06902 1.92071 5.9931 2.08179 5.97978 2.23222L5.97097 2.43233C5.90306 3.30481 5.15901 3.98953 4.24908 3.98941C4.01452 3.98702 3.78329 3.93621 3.54748 3.82945L3.42123 3.76421C3.06151 3.56226 2.60282 3.68368 2.38995 4.04537L1.96382 4.73142C1.76856 5.06344 1.86621 5.48624 2.16856 5.69271L2.33966 5.79887C2.81091 6.11105 3.09678 6.63366 3.09678 7.19616C3.09678 7.75044 2.81889 8.26859 2.33851 8.59385L2.23625 8.65684C1.89967 8.84762 1.76977 9.2596 1.92621 9.58403L1.96316 9.65397L2.37614 10.352C2.47311 10.5234 2.63583 10.6499 2.82827 10.7035C2.99884 10.751 3.18088 10.7379 3.3229 10.6758L3.39426 10.6416C3.78815 10.4164 4.25753 10.3547 4.69807 10.4702C5.13861 10.5857 5.5138 10.8688 5.73635 11.2501C5.85607 11.4477 5.93183 11.6677 5.96115 11.9206L5.97438 12.1526C6.0152 12.5218 6.33432 12.8091 6.72192 12.8091H7.53269C7.92471 12.8091 8.25035 12.5138 8.28094 12.1521L8.28465 12.0805C8.28245 11.6318 8.46339 11.2009 8.7872 10.8836C9.11101 10.5664 9.55082 10.3891 10.0194 10.3915C10.2493 10.3975 10.4756 10.448 10.7069 10.5499L10.9142 10.6537C11.2397 10.7937 11.6258 10.6915 11.8215 10.4165L11.8691 10.3436L12.292 9.65312C12.3919 9.48503 12.4194 9.28482 12.3682 9.09684C12.3229 8.93024 12.2189 8.78486 12.0928 8.6979L11.9141 8.58722C11.5724 8.36095 11.3241 8.02065 11.2171 7.62761C11.0994 7.19528 11.1625 6.73481 11.3906 6.35123C11.5155 6.13763 11.6871 5.95398 11.9109 5.80171L12.0164 5.73661C12.3524 5.54403 12.4822 5.13208 12.3269 4.80642L12.2805 4.71877L12.2722 4.70038L11.8884 4.04723C11.7068 3.73855 11.3291 3.60517 11.0086 3.71055L10.9357 3.73914L10.868 3.77294C10.4754 3.99953 10.0069 4.06382 9.56589 3.95163C9.12484 3.83943 8.74746 3.55996 8.51827 3.17702C8.39855 2.97939 8.32279 2.75939 8.29346 2.50651L8.28485 2.34109C8.29068 2.14206 8.21404 1.94919 8.07239 1.80642C7.93073 1.66365 7.73612 1.58322 7.53269 1.58322ZM7.13027 5.05122C8.33938 5.05122 9.31956 6.01154 9.31956 7.19616C9.31956 8.38077 8.33938 9.3411 7.13027 9.3411C5.92115 9.3411 4.94097 8.38077 4.94097 7.19616C4.94097 6.01154 5.92115 5.05122 7.13027 5.05122ZM7.13027 6.00138C6.45677 6.00138 5.91079 6.5363 5.91079 7.19616C5.91079 7.85601 6.45677 8.39093 7.13027 8.39093C7.80377 8.39093 8.34975 7.85601 8.34975 7.19616C8.34975 6.5363 7.80377 6.00138 7.13027 6.00138Z"  />
</svg>
