<svg width="15" height="14" viewBox="0 0 15 14" xmlns="http://www.w3.org/2000/svg">
<path d="M6.68913 0.685989C8.25064 0.685989 9.52514 1.91587 9.5967 3.45971L9.59986 3.59673V4.20907C9.59986 4.48092 9.37948 4.7013 9.10763 4.7013C8.85843 4.7013 8.65249 4.51612 8.61989 4.27586L8.6154 4.20907V3.59673C8.6154 2.57098 7.81337 1.73232 6.8023 1.67373L6.68913 1.67046L3.48961 1.67046C2.46442 1.67046 1.62585 2.47255 1.56727 3.48356L1.564 3.59673L1.564 10.9015C1.564 11.9271 2.36594 12.7659 3.3765 12.8245L3.48961 12.8277H6.69569C7.7178 12.8277 8.55373 12.0286 8.61214 11.0214L8.6154 10.9087V10.2898C8.6154 10.0179 8.83578 9.79755 9.10763 9.79755C9.35683 9.79755 9.56278 9.98273 9.59537 10.223L9.59986 10.2898V10.9087C9.59986 12.4649 8.37466 13.7355 6.83637 13.8089L6.69569 13.8122H3.48961C1.92861 13.8122 0.654244 12.5822 0.582697 11.0385L0.579529 10.9015L0.579529 3.59673C0.579529 2.03533 1.8093 0.760718 3.35264 0.689158L3.48961 0.685989L6.68913 0.685989ZM11.9364 4.93945L11.9917 4.98698L13.9134 6.90013C13.9307 6.9173 13.9459 6.93477 13.9598 6.95326L13.9134 6.90013C13.9334 6.92009 13.9514 6.94135 13.9673 6.96363C13.9785 6.97922 13.9889 6.99569 13.9982 7.01278C13.9999 7.01611 14.0017 7.01937 14.0034 7.02264C14.0116 7.03838 14.019 7.0547 14.0255 7.07147C14.0282 7.07881 14.0308 7.08624 14.0333 7.09371C14.0381 7.10751 14.0421 7.12172 14.0455 7.13617C14.0471 7.14389 14.0487 7.15155 14.0501 7.15924C14.0528 7.17266 14.0548 7.1865 14.0562 7.20051C14.0569 7.21026 14.0576 7.21991 14.0579 7.22957C14.0584 7.23605 14.0585 7.24253 14.0585 7.24903L14.058 7.26762C14.0576 7.27772 14.0569 7.28781 14.0559 7.29788L14.0585 7.24903C14.0585 7.27978 14.0557 7.30986 14.0503 7.33905C14.0487 7.34633 14.0471 7.35402 14.0453 7.36168C14.042 7.3769 14.0378 7.39164 14.0329 7.40608C14.0304 7.41279 14.028 7.41958 14.0254 7.42633C14.0193 7.44266 14.0122 7.45847 14.0043 7.47381C14.0023 7.47727 14.0003 7.48116 13.9982 7.48503C13.9756 7.52658 13.9473 7.56416 13.9143 7.59709L13.9134 7.59774L11.9918 9.51154C11.7991 9.70338 11.4875 9.70274 11.2956 9.51011C11.1212 9.335 11.1059 9.06151 11.2493 8.8691L11.2971 8.81399L12.3728 7.74067L5.66364 7.74126C5.39179 7.74126 5.17141 7.52088 5.17141 7.24903C5.17141 6.99983 5.35659 6.79389 5.59685 6.76129L5.66364 6.7568L12.3741 6.75621L11.2971 5.68465C11.122 5.51029 11.1055 5.23687 11.248 5.04385L11.2956 4.98853C11.4699 4.81339 11.7434 4.7969 11.9364 4.93945Z" />
</svg>
