<svg width="14" height="14" viewBox="0 0 14 14"   xmlns="http://www.w3.org/2000/svg">
<path d="M6.14223 3.9264C6.19979 4.04076 6.23439 4.16485 6.24433 4.29421L6.49933 7.89637C6.50274 7.94572 6.52613 7.99171 6.5643 8.02415C6.59294 8.04848 6.62812 8.06369 6.66745 8.06812L6.70807 8.06888L10.3665 7.8485C10.6635 7.83103 10.9548 7.93442 11.1713 8.13419C11.3878 8.33396 11.5103 8.61235 11.5087 8.93442C11.346 11.3053 9.60446 13.2874 7.23255 13.8012C4.86064 14.3149 2.42644 13.2373 1.25932 11.1617C0.947228 10.6266 0.736872 10.0414 0.63975 9.44878L0.60866 9.2263C0.58167 9.0597 0.567157 8.89147 0.565063 8.72989L0.567107 8.57083C0.573857 6.09541 2.31187 3.9549 4.75764 3.37755L4.92548 3.34062L5.01577 3.32569C5.4887 3.26103 5.95401 3.50894 6.14223 3.9264ZM5.17002 4.26606L5.11472 4.27235L4.96477 4.30622C3.01656 4.77578 1.61923 6.453 1.54163 8.42896L1.53824 8.58981C1.53357 8.71218 1.53804 8.83466 1.5528 8.965L1.57104 9.09824C1.63624 9.6589 1.81727 10.2007 2.10683 10.6973C3.06976 12.4097 5.07175 13.2959 7.02251 12.8734C8.97326 12.4509 10.4056 10.8207 10.5382 8.90176C10.5382 8.87285 10.5261 8.84521 10.5046 8.82538C10.4903 8.81216 10.4727 8.80319 10.454 8.79918L10.4255 8.79697L6.77313 9.01697C6.46489 9.03887 6.16043 8.93972 5.92714 8.74145C5.69384 8.54319 5.55095 8.26216 5.5302 7.96231L5.27542 4.36321C5.27496 4.35725 5.27334 4.35143 5.26216 4.32831C5.24554 4.29154 5.20943 4.26814 5.17002 4.26606ZM8.06209 0.802653C10.8747 0.88221 13.2337 2.90322 13.685 5.61984L13.6913 5.69588L13.6898 5.82835C13.674 6.02371 13.5953 6.20951 13.4645 6.35879C13.3002 6.54626 13.0663 6.66192 12.811 6.68037L8.44954 6.96475C7.89047 6.99634 7.41005 6.58084 7.3737 6.03504L7.08214 1.75305L7.08544 1.65711L7.09994 1.549C7.13882 1.35733 7.2387 1.18222 7.38577 1.04902C7.57046 0.881748 7.81557 0.793175 8.06209 0.802653ZM8.0544 1.75297L8.34306 5.97247C8.34477 5.9981 8.3673 6.01759 8.38922 6.01637L12.7188 5.73317L12.6973 5.61503C12.2682 3.47984 10.4175 1.89434 8.19713 1.75973L8.0544 1.75297Z" />
</svg>
