<svg width="14" height="14" viewBox="0 0 14 14" xmlns="http://www.w3.org/2000/svg">
<path fill-rule="evenodd" clip-rule="evenodd" d="M2.98708 6.53451C2.98708 4.72474 4.45886 3.25296 6.26863 3.25296C8.07841 3.25296 9.55019 4.72474 9.55019 6.53451C9.55019 8.34429 8.07841 9.81607 6.26863 9.81607C4.45886 9.81607 2.98708 8.34429 2.98708 6.53451M11.5776 11.0702L9.72079 9.21282C10.2967 8.47228 10.644 7.54415 10.644 6.53452C10.644 4.12203 8.68108 2.15912 6.26859 2.15912C3.8561 2.15912 1.89319 4.12203 1.89319 6.53452C1.89319 8.94701 3.8561 10.9099 6.26859 10.9099C7.27822 10.9099 8.20635 10.5626 8.94689 9.98672L10.8042 11.8435C10.9109 11.9502 11.0509 12.0038 11.1909 12.0038C11.3309 12.0038 11.471 11.9502 11.5776 11.8435C11.7914 11.6297 11.7914 11.284 11.5776 11.0702" />
<mask id="mask0" mask-type="alpha" maskUnits="userSpaceOnUse" x="1" y="2" width="11" height="11">
<path fill-rule="evenodd" clip-rule="evenodd" d="M2.98708 6.53451C2.98708 4.72474 4.45886 3.25296 6.26863 3.25296C8.07841 3.25296 9.55019 4.72474 9.55019 6.53451C9.55019 8.34429 8.07841 9.81607 6.26863 9.81607C4.45886 9.81607 2.98708 8.34429 2.98708 6.53451M11.5776 11.0702L9.72079 9.21282C10.2967 8.47228 10.644 7.54415 10.644 6.53452C10.644 4.12203 8.68108 2.15912 6.26859 2.15912C3.8561 2.15912 1.89319 4.12203 1.89319 6.53452C1.89319 8.94701 3.8561 10.9099 6.26859 10.9099C7.27822 10.9099 8.20635 10.5626 8.94689 9.98672L10.8042 11.8435C10.9109 11.9502 11.0509 12.0038 11.1909 12.0038C11.3309 12.0038 11.471 11.9502 11.5776 11.8435C11.7914 11.6297 11.7914 11.284 11.5776 11.0702" />
</mask>
<g mask="url(#mask0)">
<rect x="0.252441" y="0.518341" width="13.1262" height="13.1262" />
</g>
</svg>
